<svg width="291" height="69" viewBox="0 0 291 69" fill="none" xmlns="http://www.w3.org/2000/svg">
<path d="M78.1083 52.4387V57.1767H76.6289V45.2217H81.1071C82.2666 45.2217 83.1862 45.5415 83.8859 46.2013C84.5856 46.841 84.9255 47.7207 84.9255 48.8002C84.9255 49.6399 84.7056 50.3596 84.2858 50.9593C83.8659 51.5591 83.2662 51.9989 82.5265 52.2188L85.3053 57.1767H83.566L81.0071 52.4387H78.1083ZM78.1083 46.5411V51.1192H80.9671C81.7268 51.1192 82.3266 50.9193 82.7464 50.5195C83.1662 50.1196 83.3661 49.5599 83.3661 48.8202C83.3661 48.1005 83.1462 47.5407 82.7064 47.1409C82.2666 46.7411 81.6668 46.5411 80.8872 46.5411H78.1083Z" fill="#ECECEC"/>
<path d="M92.2825 54.6983H93.7019C93.5819 55.4579 93.1821 56.0977 92.5024 56.5775C91.8226 57.0573 91.043 57.3172 90.1034 57.3172C88.8639 57.3172 87.9043 56.9173 87.1846 56.1177C86.4848 55.318 86.125 54.2384 86.125 52.879C86.125 51.5396 86.4848 50.44 87.1846 49.6204C87.8843 48.8007 88.8439 48.3809 90.0234 48.3809C91.1829 48.3809 92.1025 48.7807 92.7823 49.5404C93.462 50.3201 93.7818 51.3596 93.7818 52.6791V53.2189H87.6244V53.2988C87.6244 54.1185 87.8443 54.7982 88.3041 55.298C88.7639 55.7978 89.3637 56.0377 90.1433 56.0377C90.6831 56.0377 91.1429 55.9178 91.5228 55.6579C91.9026 55.4379 92.1625 55.1181 92.2825 54.6983ZM90.0234 49.6403C89.3637 49.6403 88.8039 49.8603 88.3641 50.3401C87.9243 50.7999 87.6844 51.3996 87.6444 52.1193H92.3224C92.3024 51.3996 92.0825 50.7999 91.6627 50.3401C91.2429 49.8802 90.7031 49.6403 90.0234 49.6403Z" fill="#ECECEC"/>
<path d="M95.0993 50.9198C95.0993 50.1801 95.3992 49.5804 95.9989 49.1006C96.5987 48.6208 97.3583 48.3809 98.3179 48.3809C99.2176 48.3809 99.9573 48.6208 100.537 49.1006C101.137 49.5804 101.437 50.1801 101.477 50.8998H100.097C100.037 50.48 99.8573 50.1601 99.5374 49.9202C99.2176 49.6803 98.7778 49.5604 98.258 49.5604C97.7382 49.5604 97.3184 49.6803 96.9785 49.9202C96.6586 50.1601 96.4987 50.46 96.4987 50.8399C96.4987 51.4196 96.9785 51.8394 97.9381 52.0793L99.2776 52.3992C100.137 52.6191 100.757 52.899 101.117 53.2589C101.477 53.6187 101.657 54.0985 101.657 54.7382C101.657 55.4979 101.337 56.0977 100.697 56.5775C100.057 57.0573 99.2376 57.2972 98.218 57.2972C97.2784 57.2972 96.4987 57.0573 95.8989 56.5975C95.2992 56.1377 94.9393 55.5179 94.8594 54.7382H96.2988C96.4587 55.6579 97.1184 56.1177 98.298 56.1177C98.8777 56.1177 99.3375 55.9977 99.6774 55.7778C100.017 55.5579 100.197 55.238 100.197 54.8382C100.197 54.5383 100.097 54.2784 99.8973 54.0985C99.6974 53.9186 99.3575 53.7587 98.8777 53.6387L97.3583 53.2589C95.859 52.879 95.0993 52.0993 95.0993 50.9198Z" fill="#ECECEC"/>
<path d="M108.876 54.6983H110.296C110.176 55.4579 109.776 56.0977 109.096 56.5775C108.436 57.0773 107.637 57.3172 106.697 57.3172C105.458 57.3172 104.498 56.9173 103.778 56.1177C103.079 55.318 102.719 54.2384 102.719 52.879C102.719 51.5396 103.079 50.44 103.778 49.6204C104.478 48.8007 105.438 48.3809 106.617 48.3809C107.777 48.3809 108.696 48.7807 109.376 49.5404C110.056 50.3201 110.376 51.3596 110.376 52.6791V53.2189H104.218V53.2988C104.218 54.1185 104.438 54.7982 104.898 55.298C105.358 55.7978 105.957 56.0377 106.737 56.0377C107.277 56.0377 107.737 55.9178 108.117 55.6579C108.496 55.4379 108.756 55.1181 108.876 54.6983ZM106.597 49.6403C105.937 49.6403 105.378 49.8603 104.938 50.3401C104.498 50.7999 104.258 51.3996 104.218 52.1193H108.896C108.876 51.3996 108.656 50.7999 108.236 50.3401C107.837 49.8802 107.277 49.6403 106.597 49.6403Z" fill="#ECECEC"/>
<path d="M114.371 57.3172C113.511 57.3172 112.832 57.0773 112.292 56.5975C111.772 56.1177 111.492 55.4979 111.492 54.7183C111.492 53.9786 111.772 53.3788 112.312 52.939C112.852 52.4992 113.631 52.2393 114.631 52.1993L117.09 52.0594V51.3396C117.09 50.8199 116.93 50.4 116.59 50.1002C116.25 49.8003 115.79 49.6603 115.191 49.6603C114.651 49.6603 114.211 49.7803 113.851 50.0202C113.511 50.2601 113.291 50.5999 113.191 51.0198H111.792C111.832 50.2601 112.172 49.6204 112.792 49.1206C113.411 48.6208 114.211 48.3809 115.211 48.3809C116.23 48.3809 117.03 48.6408 117.61 49.1406C118.209 49.6403 118.509 50.3401 118.509 51.1797V57.1373H117.15V55.6779H117.11C116.85 56.1776 116.47 56.5575 115.97 56.8574C115.491 57.1573 114.951 57.3172 114.371 57.3172ZM114.691 56.0977C115.371 56.0977 115.95 55.8778 116.41 55.4579C116.87 55.0381 117.09 54.5183 117.09 53.8986V53.1989L114.791 53.3388C114.211 53.3788 113.771 53.5187 113.451 53.7586C113.132 53.9985 112.972 54.3184 112.972 54.7382C112.972 55.1581 113.132 55.4779 113.451 55.7178C113.751 55.9577 114.171 56.0977 114.691 56.0977Z" fill="#ECECEC"/>
<path d="M120.371 57.1572V48.5408H121.731V49.9402H121.771C121.91 49.4604 122.17 49.0806 122.55 48.8007C122.93 48.5208 123.37 48.3809 123.87 48.3809C123.99 48.3809 124.17 48.4009 124.449 48.4408V49.8403C124.289 49.7803 124.03 49.7603 123.69 49.7603C123.13 49.7603 122.69 49.9402 122.35 50.3201C122.01 50.6999 121.85 51.1797 121.85 51.7795V57.1572H120.371Z" fill="#ECECEC"/>
<path d="M132.325 51.3782H130.926C130.806 50.8784 130.566 50.4786 130.186 50.1587C129.806 49.8388 129.326 49.6789 128.706 49.6789C127.947 49.6789 127.347 49.9588 126.887 50.5385C126.427 51.1183 126.207 51.898 126.207 52.8576C126.207 53.8372 126.427 54.6169 126.907 55.1966C127.367 55.7564 127.967 56.0563 128.726 56.0563C129.306 56.0563 129.786 55.9163 130.166 55.6164C130.546 55.3166 130.806 54.9167 130.926 54.3969H132.345C132.225 55.2566 131.845 55.9563 131.185 56.4961C130.526 57.0359 129.706 57.3157 128.726 57.3157C127.527 57.3157 126.547 56.9159 125.828 56.1162C125.108 55.3166 124.748 54.237 124.748 52.8576C124.748 51.4981 125.108 50.4186 125.828 49.6189C126.547 48.8192 127.507 48.3994 128.706 48.3994C129.746 48.3994 130.566 48.6993 131.205 49.2791C131.865 49.8388 132.245 50.5385 132.325 51.3782Z" fill="#ECECEC"/>
<path d="M133.764 57.1553V45.2002H135.203V49.9183H135.243C135.483 49.4384 135.843 49.0586 136.303 48.7987C136.762 48.5388 137.322 48.3989 137.962 48.3989C138.902 48.3989 139.641 48.6988 140.181 49.2785C140.721 49.8583 141.001 50.6379 141.001 51.5976V57.1753H139.561V51.8774C139.561 51.1777 139.381 50.638 139.041 50.2581C138.702 49.8783 138.182 49.6783 137.522 49.6783C136.802 49.6783 136.243 49.8983 135.823 50.3581C135.403 50.7979 135.203 51.3976 135.203 52.1573V57.1753H133.764V57.1553Z" fill="#ECECEC"/>
<path d="M154.997 57.156L153.878 55.9565C153.378 56.3963 152.798 56.7561 152.119 56.996C151.439 57.2359 150.759 57.3559 150.059 57.3559C148.88 57.3559 147.92 57.036 147.161 56.4163C146.421 55.7765 146.041 54.9769 146.041 53.9773C146.041 52.5978 146.821 51.4983 148.38 50.6586C148.66 50.4987 148.82 50.4387 148.84 50.4187C148.3 49.859 147.92 49.3592 147.7 48.9394C147.48 48.5195 147.36 48.0797 147.36 47.6599C147.36 46.9002 147.64 46.2804 148.22 45.7607C148.8 45.2609 149.52 45.001 150.379 45.001C151.259 45.001 151.979 45.2609 152.558 45.7607C153.118 46.2605 153.418 46.9002 153.418 47.6799C153.418 48.2796 153.218 48.8394 152.818 49.2992C152.418 49.779 151.759 50.2588 150.859 50.7386L153.818 53.9373C154.198 53.2176 154.398 52.158 154.398 50.7586V50.3987H155.777V50.7586C155.777 52.5179 155.457 53.8973 154.797 54.9369L156.897 57.156H154.997ZM149.26 51.5383C148.64 51.9181 148.2 52.278 147.94 52.6578C147.68 53.0177 147.54 53.4375 147.54 53.8973C147.54 54.557 147.78 55.0968 148.28 55.5166C148.78 55.9365 149.42 56.1364 150.219 56.1364C150.759 56.1364 151.279 56.0364 151.799 55.8365C152.318 55.6366 152.718 55.3567 153.038 55.0368L149.68 51.3584C149.5 51.3983 149.36 51.4583 149.26 51.5383ZM150.059 49.899C150.779 49.5391 151.279 49.1793 151.579 48.8594C151.879 48.5195 152.019 48.1397 152.019 47.7199C152.019 47.26 151.859 46.8802 151.559 46.6003C151.259 46.3204 150.879 46.1605 150.379 46.1605C149.919 46.1605 149.52 46.3004 149.22 46.6003C148.92 46.9002 148.76 47.26 148.76 47.7199C148.76 48.0397 148.86 48.3796 149.06 48.6994C149.26 49.0393 149.6 49.4391 150.059 49.899Z" fill="#ECECEC"/>
<path d="M169.15 57.1553L167.95 53.7367H163.192L161.993 57.1553H160.434L164.852 45.2002H166.331L170.749 57.1553H169.15ZM165.531 47.0194L163.612 52.4772H167.491L165.591 47.0194H165.531Z" fill="#ECECEC"/>
<path d="M171.85 57.1558V48.5394H173.209V49.9188H173.249C173.489 49.439 173.849 49.0592 174.309 48.7993C174.768 48.5394 175.328 48.3994 175.968 48.3994C176.908 48.3994 177.647 48.6793 178.167 49.2591C178.687 49.8188 178.947 50.5985 178.947 51.5781V57.1758H177.507V51.838C177.507 51.1383 177.347 50.5985 177.007 50.2387C176.668 49.8788 176.188 49.6789 175.528 49.6789C174.848 49.6789 174.309 49.8988 173.889 50.3386C173.469 50.7784 173.269 51.3582 173.269 52.0979V57.1758H171.85V57.1558Z" fill="#ECECEC"/>
<path d="M183.305 57.3172C182.445 57.3172 181.765 57.0773 181.225 56.5975C180.706 56.1177 180.426 55.4979 180.426 54.7183C180.426 53.9786 180.706 53.3788 181.245 52.939C181.785 52.4992 182.565 52.2393 183.564 52.1993L186.023 52.0594V51.3396C186.023 50.8199 185.864 50.4 185.524 50.1002C185.184 49.8003 184.724 49.6603 184.124 49.6603C183.584 49.6603 183.145 49.7803 182.785 50.0202C182.445 50.2601 182.225 50.5999 182.125 51.0198H180.726C180.766 50.2601 181.106 49.6204 181.725 49.1206C182.345 48.6208 183.145 48.3809 184.144 48.3809C185.164 48.3809 185.964 48.6408 186.543 49.1406C187.143 49.6403 187.443 50.3401 187.443 51.1797V57.1373H186.083V55.6779H186.043C185.784 56.1776 185.404 56.5575 184.904 56.8574C184.424 57.1573 183.884 57.3172 183.305 57.3172ZM183.624 56.0977C184.304 56.0977 184.884 55.8778 185.344 55.4579C185.804 55.0381 186.023 54.5183 186.023 53.8986V53.1989L183.724 53.3388C183.145 53.3788 182.705 53.5187 182.385 53.7586C182.065 53.9985 181.905 54.3184 181.905 54.7382C181.905 55.1581 182.065 55.4779 182.385 55.7178C182.705 55.9577 183.125 56.0977 183.624 56.0977Z" fill="#ECECEC"/>
<path d="M189.383 57.1553V45.2002H190.822V57.1553H189.383Z" fill="#ECECEC"/>
<path d="M193.48 60.3957C193.221 60.3957 193.021 60.3757 192.861 60.3357V59.1362C193.001 59.1562 193.181 59.1762 193.42 59.1762C193.82 59.1762 194.14 59.0762 194.4 58.8563C194.64 58.6364 194.84 58.2765 195.02 57.7767L195.22 57.177L192.041 48.5605H193.58L195.959 55.7376H195.979L198.358 48.5605H199.878L196.499 57.7767C196.119 58.7763 195.719 59.476 195.3 59.8359C194.88 60.1957 194.26 60.3957 193.48 60.3957Z" fill="#ECECEC"/>
<path d="M201.479 46.4619H202.918V48.5411H204.597V49.7206H202.918V54.8385C202.918 55.2383 202.998 55.5182 203.178 55.6981C203.358 55.878 203.618 55.978 203.998 55.978C204.238 55.978 204.437 55.958 204.597 55.938V57.1375C204.417 57.1775 204.098 57.1975 203.678 57.1975C202.898 57.1975 202.318 57.0176 201.978 56.6577C201.639 56.2979 201.479 55.7181 201.479 54.8784V49.6806H200.199V48.5011H201.479V46.4619Z" fill="#ECECEC"/>
<path d="M206.935 47.101C206.695 47.101 206.475 47.021 206.295 46.8411C206.115 46.6612 206.035 46.4613 206.035 46.2014C206.035 45.9615 206.115 45.7416 206.295 45.5616C206.475 45.3817 206.675 45.3018 206.935 45.3018C207.175 45.3018 207.395 45.3817 207.575 45.5616C207.754 45.7416 207.834 45.9415 207.834 46.2014C207.834 46.4413 207.754 46.6612 207.575 46.8411C207.395 47.0011 207.175 47.101 206.935 47.101ZM206.215 57.1569V48.5404H207.654V57.1569H206.215Z" fill="#ECECEC"/>
<path d="M216.751 51.3782H215.351C215.231 50.8784 214.991 50.4786 214.612 50.1587C214.232 49.8388 213.752 49.6789 213.132 49.6789C212.373 49.6789 211.773 49.9588 211.313 50.5385C210.853 51.1183 210.633 51.898 210.633 52.8576C210.633 53.8372 210.853 54.6169 211.333 55.1966C211.793 55.7564 212.392 56.0563 213.152 56.0563C213.732 56.0563 214.212 55.9163 214.592 55.6164C214.971 55.3166 215.231 54.9167 215.351 54.3969H216.771C216.651 55.2566 216.271 55.9563 215.611 56.4961C214.951 57.0359 214.132 57.3157 213.152 57.3157C211.953 57.3157 210.973 56.9159 210.253 56.1162C209.534 55.3166 209.174 54.237 209.174 52.8576C209.174 51.4981 209.534 50.4186 210.253 49.6189C210.973 48.8192 211.933 48.3994 213.132 48.3994C214.172 48.3994 214.991 48.6993 215.631 49.2791C216.291 49.8388 216.651 50.5385 216.751 51.3782Z" fill="#ECECEC"/>
<path d="M217.951 50.9198C217.951 50.1801 218.251 49.5804 218.85 49.1006C219.45 48.6208 220.21 48.3809 221.17 48.3809C222.069 48.3809 222.809 48.6208 223.389 49.1006C223.988 49.5804 224.288 50.1801 224.328 50.8998H222.949C222.889 50.48 222.709 50.1601 222.389 49.9202C222.069 49.6803 221.629 49.5604 221.11 49.5604C220.59 49.5604 220.17 49.6803 219.83 49.9202C219.51 50.1601 219.35 50.46 219.35 50.8399C219.35 51.4196 219.83 51.8394 220.79 52.0793L222.129 52.3992C222.989 52.6191 223.609 52.899 223.968 53.2589C224.328 53.6187 224.508 54.0985 224.508 54.7382C224.508 55.4979 224.188 56.0977 223.549 56.5775C222.909 57.0573 222.089 57.2972 221.07 57.2972C220.13 57.2972 219.35 57.0573 218.751 56.5975C218.151 56.1377 217.791 55.5179 217.711 54.7382H219.15C219.31 55.6579 219.97 56.1177 221.15 56.1177C221.729 56.1177 222.189 55.9977 222.529 55.7778C222.869 55.5579 223.049 55.238 223.049 54.8382C223.049 54.5383 222.949 54.2784 222.749 54.0985C222.549 53.9186 222.209 53.7587 221.729 53.6387L220.21 53.2589C218.711 52.879 217.951 52.0993 217.951 50.9198Z" fill="#ECECEC"/>
<path d="M80.9271 30.2882H92.5024V34.4065H76.6289V8.2373H92.3224V12.3556H80.9271V19.1528H91.3828V23.2311H80.9271V30.2882Z" fill="#ECECEC"/>
<path d="M108.836 15.7148H113.254L105.957 34.4071H101.279L93.9824 15.7148H98.4006L103.638 29.909L108.836 15.7148Z" fill="#ECECEC"/>
<path d="M119.613 12.1355C119.093 12.6553 118.493 12.8952 117.794 12.8952C117.094 12.8952 116.494 12.6353 115.975 12.1355C115.455 11.6357 115.215 11.016 115.215 10.3162C115.215 9.61653 115.455 9.01677 115.955 8.49699C116.454 7.99719 117.054 7.7373 117.794 7.7373C118.533 7.7373 119.133 7.99719 119.633 8.49699C120.133 9.01677 120.373 9.61653 120.373 10.3162C120.393 11.016 120.133 11.6157 119.613 12.1355ZM115.795 34.3863V15.694H119.833V34.3863H115.795Z" fill="#ECECEC"/>
<path d="M139.303 8.2373H143.341V34.4065H139.303V31.7076C137.783 33.8267 135.604 34.8863 132.765 34.8863C130.206 34.8863 128.007 33.9267 126.188 32.0275C124.369 30.1283 123.449 27.7892 123.449 25.0504C123.449 22.2915 124.369 19.9525 126.188 18.0532C128.007 16.154 130.206 15.2144 132.765 15.2144C135.604 15.2144 137.783 16.254 139.303 18.3531V8.2373ZM129.167 29.3286C130.286 30.4681 131.706 31.0279 133.385 31.0279C135.084 31.0279 136.484 30.4681 137.603 29.3286C138.723 28.1891 139.283 26.7697 139.283 25.0504C139.283 23.3311 138.723 21.9117 137.603 20.7721C136.484 19.6326 135.084 19.0728 133.385 19.0728C131.686 19.0728 130.286 19.6326 129.167 20.7721C128.047 21.9117 127.488 23.3311 127.488 25.0504C127.488 26.7697 128.047 28.1891 129.167 29.3286Z" fill="#ECECEC"/>
<path d="M151.22 26.7696C151.52 28.189 152.199 29.2886 153.279 30.0483C154.358 30.8079 155.658 31.1878 157.197 31.1878C159.336 31.1878 160.956 30.4081 162.015 28.8688L165.354 30.808C163.515 33.5268 160.776 34.8863 157.177 34.8863C154.139 34.8863 151.68 33.9666 149.82 32.1074C147.961 30.2482 147.021 27.9091 147.021 25.0703C147.021 22.2715 147.941 19.9524 149.78 18.0532C151.62 16.174 153.999 15.2344 156.877 15.2344C159.616 15.2344 161.875 16.194 163.615 18.1132C165.374 20.0324 166.254 22.3714 166.254 25.1103C166.254 25.5301 166.214 26.0899 166.114 26.7896H151.22V26.7696ZM151.18 23.471H162.175C161.895 21.9516 161.276 20.8121 160.296 20.0324C159.316 19.2527 158.157 18.8729 156.837 18.8729C155.338 18.8729 154.099 19.2927 153.099 20.1124C152.099 20.932 151.46 22.0516 151.18 23.471Z" fill="#ECECEC"/>
<path d="M179.625 15.2148C181.764 15.2148 183.503 15.8946 184.823 17.274C186.142 18.6534 186.802 20.5326 186.802 22.9117V34.3869H182.764V23.3315C182.764 21.9321 182.384 20.8725 181.644 20.1128C180.904 19.3731 179.885 18.9933 178.585 18.9933C177.166 18.9933 176.026 19.4331 175.147 20.3127C174.267 21.1924 173.847 22.5518 173.847 24.3711V34.3869H169.789V15.6946H173.827V18.0937C175.047 16.1745 176.986 15.2148 179.625 15.2148Z" fill="#ECECEC"/>
<path d="M199.957 34.8867C197.139 34.8867 194.8 33.9471 192.92 32.0479C191.041 30.1487 190.102 27.8296 190.102 25.0508C190.102 22.2519 191.041 19.9329 192.92 18.0337C194.8 16.1544 197.159 15.2148 199.957 15.2148C201.777 15.2148 203.436 15.6547 204.935 16.5143C206.435 17.3939 207.554 18.5535 208.294 20.0328L204.815 22.052C204.396 21.1524 203.756 20.4527 202.896 19.9329C202.037 19.4331 201.037 19.1732 199.918 19.1732C198.278 19.1732 196.899 19.733 195.779 20.8525C194.68 21.9721 194.12 23.3715 194.12 25.0308C194.12 26.7101 194.68 28.0895 195.779 29.2091C196.899 30.3286 198.258 30.8884 199.918 30.8884C201.017 30.8884 201.997 30.6285 202.896 30.1087C203.776 29.5889 204.456 28.8892 204.895 28.0096L208.374 29.9888C207.574 31.4881 206.435 32.6676 204.935 33.5473C203.436 34.4469 201.777 34.8867 199.957 34.8867Z" fill="#ECECEC"/>
<path d="M214.171 26.7696C214.471 28.189 215.151 29.2886 216.23 30.0483C217.31 30.8079 218.609 31.1878 220.148 31.1878C222.288 31.1878 223.907 30.4081 224.966 28.8688L228.305 30.808C226.466 33.5268 223.727 34.8863 220.128 34.8863C217.09 34.8863 214.631 33.9666 212.772 32.1074C210.912 30.2482 209.973 27.9091 209.973 25.0703C209.973 22.2715 210.892 19.9524 212.732 18.0532C214.571 16.174 216.95 15.2344 219.829 15.2344C222.567 15.2344 224.827 16.194 226.566 18.1132C228.325 20.0324 229.205 22.3714 229.205 25.1103C229.205 25.5301 229.165 26.0899 229.065 26.7896H214.171V26.7696ZM214.131 23.471H225.126C224.847 21.9516 224.227 20.8121 223.247 20.0324C222.268 19.2527 221.108 18.8729 219.789 18.8729C218.289 18.8729 217.05 19.2927 216.05 20.1124C215.031 20.932 214.391 22.0516 214.131 23.471Z" fill="#ECECEC"/>
<path d="M254.715 34.8852C250.777 34.8852 247.518 33.5857 244.919 30.9868C242.32 28.3879 241.041 25.1692 241.041 21.3308C241.041 17.4924 242.34 14.2737 244.919 11.6748C247.518 9.07583 250.777 7.77637 254.715 7.77637C257.074 7.77637 259.274 8.33614 261.273 9.45568C263.272 10.5752 264.851 12.0946 265.971 14.0138L262.232 16.1729C261.533 14.8734 260.513 13.8539 259.194 13.0942C257.854 12.3345 256.375 11.9547 254.735 11.9547C251.937 11.9547 249.677 12.8343 247.958 14.6135C246.219 16.3728 245.359 18.6319 245.359 21.3308C245.359 24.0497 246.219 26.2887 247.958 28.068C249.697 29.8273 251.957 30.7269 254.735 30.7269C256.375 30.7269 257.874 30.3471 259.214 29.5874C260.553 28.8277 261.573 27.8081 262.232 26.5086L265.971 28.6478C264.871 30.567 263.332 32.0863 261.313 33.2259C259.313 34.3054 257.114 34.8852 254.715 34.8852Z" fill="#ECECEC"/>
<path d="M286.383 34.387L284.543 29.1092H273.408L271.569 34.387H266.891L276.387 8.21777H281.545L291.001 34.387H286.383ZM274.827 25.0908H283.124L278.966 13.2757L274.827 25.0908Z" fill="#ECECEC"/>
<path d="M51.4196 36.3857H34.6465V68.7924H51.4196V36.3857Z" fill="#0F6937"/>
<path d="M17.073 16.5938H0V68.7922H17.073V16.5938Z" fill="#67B547"/>
<path d="M0 0V14.0942H19.5519V68.7916H32.1467V33.886H51.4188V0H0Z" fill="#141414"/>
</svg>
